<svg version="1.1" viewBox="0.0 0.0 256.0 256.0" fill="none" stroke="none" stroke-linecap="square" stroke-miterlimit="10" xmlns:xlink="http://www.w3.org/1999/xlink" xmlns="http://www.w3.org/2000/svg"><clipPath id="p.0"><path d="m0 0l256.0 0l0 256.0l-256.0 0l0 -256.0z" clip-rule="nonzero"/></clipPath><g clip-path="url(#p.0)"><path fill="#000000" fill-opacity="0.0" d="m0 0l256.0 0l0 256.0l-256.0 0z" fill-rule="evenodd"/><path fill="#2ca55e" d="m5.5643044 128.00525l0 0c0 -67.62227 54.81868 -122.44095 122.44095 -122.44095l0 0c32.47336 0 63.616684 12.899992 86.57883 35.86212c22.962128 22.962132 35.86212 54.105465 35.86212 86.57883l0 0c0 67.62227 -54.81868 122.44095 -122.44095 122.44095l0 0c-67.62227 0 -122.44095 -54.81868 -122.44095 -122.44095z" fill-rule="evenodd"/><path fill="#ffffff" d="m0 128.0l0 0c0 -70.692444 57.307552 -128.0 128.0 -128.0l0 0c33.94771 0 66.505005 13.485676 90.509674 37.490334c24.004654 24.004654 37.490326 56.56196 37.490326 90.50967l0 0c0 70.692444 -57.307556 128.0 -128.0 128.0l0 0c-70.692444 0 -128.0 -57.307556 -128.0 -128.0zm9.49248 0l0 0c0 65.44989 53.05762 118.50752 118.50752 118.50752c65.44989 0 118.50752 -53.057632 118.50752 -118.50752l0 0c0 -65.4499 -53.057632 -118.50752 -118.50752 -118.50752l0 0c-65.4499 0 -118.50752 53.05762 -118.50752 118.50752z" fill-rule="evenodd"/><path fill="#000000" fill-opacity="0.0" d="m128.0 128.0l57.921265 26.582672" fill-rule="evenodd"/><path stroke="#ffffff" stroke-width="24.0" stroke-linejoin="round" stroke-linecap="round" d="m128.0 128.0l57.921265 26.582672" fill-rule="evenodd"/><path fill="#000000" fill-opacity="0.0" d="m128.0 128.0l0 -99.2126" fill-rule="evenodd"/><path stroke="#ffffff" stroke-width="16.0" stroke-linejoin="round" stroke-linecap="round" d="m128.0 128.0l0 -99.2126" fill-rule="evenodd"/></g></svg>