<svg version="1.1" viewBox="0.0 0.0 960.0 720.0" fill="none" stroke="none" stroke-linecap="square" stroke-miterlimit="10" xmlns:xlink="http://www.w3.org/1999/xlink" xmlns="http://www.w3.org/2000/svg"><clipPath id="p.0"><path d="m0 0l960.0 0l0 720.0l-960.0 0l0 -720.0z" clip-rule="nonzero"/></clipPath><g clip-path="url(#p.0)"><path fill="#000000" fill-opacity="0.0" d="m0 0l960.0 0l0 720.0l-960.0 0z" fill-rule="evenodd"/><path fill="#2ca55e" d="m0 0l960.0 0l0 720.0l-960.0 0z" fill-rule="evenodd"/><path fill="#268d50" d="m0 0.005249344l0 789.7008l741.16534 -789.7008z" fill-rule="evenodd"/><path fill="#24854c" d="m0.015748031 -0.015748031l0 550.01575l698.5197 -550.01575z" fill-rule="evenodd"/><path fill="#227d47" d="m0.015748031 -0.028871391l0 342.67715l698.5197 -342.67715z" fill-rule="evenodd"/><path fill="#227d47" d="m-15.963255 22.057743l564.8189 603.77954l-564.8189 603.77954z" fill-rule="evenodd"/><path fill="#30b567" d="m960.0 0.007874016l0 855.874l-354.5827 -855.874z" fill-rule="evenodd"/><path fill="#171c26" d="m960.0 720.01575l0 -170.01575l-1431.9685 170.01575z" fill-rule="evenodd"/><path fill="#2f3646" d="m-0.002624672 0.007874016l314.70865 0l-314.70865 314.70865z" fill-rule="evenodd"/></g></svg>